<svg
              class="w-7 h-7 text-deep-purple-accent-400"
              viewBox="0 0 24 24"
              strokeLinecap="round"
            >
              <path
                d="M2,10C2,5.029,6.47,1,12,1c5.379,0,10,4.029,10,9S15.712,23,12,23C8.212,23,2,14.971,2,10Z"
                fill="none"
                strokeWidth="2"
                stroke="currentColor"
              />
              <path
                d="M5,9a6.529,6.529,0,0,1,4.393,1.607C10.705,11.92,10,15,10,15a6.59,6.59,0,0,1-3.436-1.564C5.022,11.894,5,9,5,9Z"
                fill="none"
                strokeWidth="1.5"
                stroke="currentColor"
              />
              <path
                d="M19,9a6.523,6.523,0,0,0-4.392,1.608C13.3,11.92,14,15,14,15a6.59,6.59,0,0,0,3.436-1.564C18.978,11.894,19,9,19,9Z"
                fill="none"
                strokeWidth="1.5"
                stroke="currentColor"
              />
            </svg>